<?xml version="1.0" encoding="utf-8"?>
<!-- Extracted by Kirilloparma (https://commons.wikimedia.org/wiki/User:Kirilloparma) from (https://www.threads.net) -->
<svg xmlns="http://www.w3.org/2000/svg" width="159" height="32" viewBox="0 0 159 32"><title>Threads wordmark</title><path d="M0 4.79484H10.2032V31.3656H15.3195V4.79484H25.5227V0H0V4.79484Z" fill="#000000"></path><path d="M40.6955 7.52421C38.9803 7.52421 37.5437 7.87828 36.4002 8.57169C35.2568 9.27985 34.3772 10.2241 33.7468 11.4191V0H28.8944V31.3656H33.7468V17.7925C33.7468 16.8336 33.8641 16.0369 34.084 15.3877C34.3039 14.7386 34.6557 14.178 35.1248 13.6616C35.6526 13.0272 36.2683 12.5698 36.9573 12.2453C37.6463 11.9355 38.4526 11.7732 39.4055 11.7732C40.6809 11.7732 41.6777 12.142 42.3961 12.8944C43.1144 13.6468 43.4662 14.6796 43.4662 15.9926V31.3656H48.3186V15.5943C48.3186 13.1747 47.7029 11.2273 46.4422 9.75196C45.1961 8.26187 43.2903 7.52421 40.6955 7.52421Z" fill="#000000"></path><path d="M84.7482 9.0144C83.2089 8.02592 81.2592 7.53906 78.9136 7.53906C76.8319 7.53906 74.9848 8.05543 73.3429 9.08816C71.7157 10.1209 70.4256 11.5225 69.5167 13.3076C68.5931 15.0928 68.1387 17.0992 68.1387 19.3417V20.1532C68.1387 22.5432 68.5931 24.6234 69.502 26.3791C70.4109 28.1347 71.6717 29.5068 73.3136 30.4805C74.9408 31.4542 76.8173 31.9411 78.9283 31.9411C81.4791 31.9411 83.6047 31.41 85.2906 30.3772C86.9765 29.3298 88.2079 27.8692 88.9849 25.9807L84.7922 24.1956C84.2644 25.4201 83.5314 26.3053 82.6079 26.8364C81.6843 27.3676 80.4822 27.6479 79.0016 27.6479C77.0958 27.6479 75.6152 26.984 74.5303 25.6562C73.5042 24.3874 72.9617 22.6465 72.9031 20.4335H89.3367V18.5008C89.3367 16.4943 88.9556 14.6649 88.2079 12.983C87.4456 11.3307 86.2875 9.98812 84.7482 9.0144ZM73.0204 16.9369C73.2403 15.4469 73.768 14.2518 74.589 13.3666C75.7178 12.1569 77.0958 11.552 78.9136 11.552C80.7168 11.552 82.0948 12.0388 83.0037 13.0126C83.9273 13.9863 84.4404 15.2846 84.5576 16.9369H73.0204Z" fill="#000000"></path><path d="M131.967 11.065C131.22 9.98801 130.267 9.13232 129.079 8.48317C127.892 7.83402 126.47 7.5242 124.799 7.5242C122.981 7.5242 121.383 7.98156 119.961 8.91102C118.554 9.84048 117.454 11.1683 116.663 12.8944C115.871 14.6206 115.475 16.745 115.475 19.2531V20.1531C115.475 22.6316 115.871 24.7414 116.663 26.497C117.454 28.2379 118.554 29.5805 119.961 30.5099C121.368 31.4394 122.981 31.8967 124.799 31.8967C126.455 31.8967 127.892 31.5722 129.079 30.9378C130.267 30.2886 131.234 29.4329 131.967 28.3559V31.3509H136.776V0H131.967V11.065ZM132.055 21.8202C132.055 22.7201 131.938 23.4578 131.703 24.0627C131.469 24.6676 131.073 25.1987 130.545 25.6708C129.798 26.3347 129.065 26.8068 128.346 27.1314C127.613 27.4412 126.851 27.6035 126.059 27.6035C124.931 27.6035 123.934 27.3527 123.069 26.8658C122.204 26.379 121.544 25.5675 121.06 24.461C120.591 23.3545 120.342 21.9235 120.342 20.1531V19.2531C120.342 17.4975 120.577 16.0664 121.06 14.9746C121.53 13.8829 122.204 13.0862 123.069 12.5698C123.934 12.0682 124.931 11.8027 126.059 11.8027C126.866 11.8027 127.628 11.9502 128.346 12.2453C129.079 12.5403 129.812 13.042 130.545 13.7206C131.088 14.1632 131.469 14.6943 131.703 15.314C131.938 15.9189 132.055 16.686 132.055 17.5712V21.8202Z" fill="#000000"></path><path d="M158.135 20.935C157.563 20.035 156.728 19.3416 155.658 18.8548C154.587 18.3679 153.327 17.9991 151.875 17.763L149.383 17.4089C148.02 17.1729 146.979 16.8188 146.261 16.3615C145.542 15.9041 145.191 15.2402 145.191 14.3698C145.191 13.4993 145.63 12.8207 146.525 12.3043C147.419 11.8027 148.474 11.5371 149.603 11.5371C150.732 11.5371 151.699 11.7584 152.491 12.2158C153.297 12.6584 153.898 13.3665 154.324 14.3255L158.194 12.4371C157.563 10.8585 156.566 9.64869 155.188 8.80775C153.81 7.9668 151.963 7.55371 149.647 7.55371C147.991 7.55371 146.481 7.83402 145.132 8.4094C143.783 8.97003 142.698 9.76671 141.877 10.7552C141.056 11.7584 140.646 12.9534 140.646 14.3698C140.646 16.3172 141.291 17.8663 142.566 19.0318C143.842 20.1973 145.454 20.9497 147.419 21.2743L149.867 21.6284C151.23 21.8349 152.315 22.1448 153.092 22.5431C153.884 22.9414 154.28 23.6349 154.28 24.6233C154.28 25.6708 153.854 26.4675 153.004 27.0281C152.154 27.574 150.996 27.8543 149.515 27.8543C148.181 27.8543 147.082 27.5297 146.217 26.8953C145.352 26.2462 144.751 25.3905 144.384 24.3135L139.972 25.9216C140.499 27.7215 141.555 29.1674 143.138 30.2739C144.707 31.3804 146.876 31.9262 149.647 31.9262C151.524 31.9262 153.151 31.6017 154.543 30.9378C155.936 30.2739 157.036 29.3887 157.813 28.2674C158.604 27.1462 159 25.7888 159 24.3873C159 22.971 158.707 21.8202 158.135 20.935Z" fill="#000000"></path><path d="M59.8559 9.05879C58.8737 9.72269 58.1407 10.6226 57.6276 11.7882V8.07031H52.9951V31.3806H57.6276V18.8698C57.6276 17.7928 57.7302 16.9076 57.9355 16.2289C58.1407 15.5355 58.4632 14.9159 58.9177 14.3405C59.4454 13.6471 60.0611 13.1307 60.7501 12.7766C61.4391 12.4225 62.1721 12.2455 62.9784 12.2455H65.8664L66.4821 8.07031H63.4036C62.0255 8.07031 60.8381 8.39489 59.8559 9.05879Z" fill="#000000"></path><path d="M110.549 20.9941C110.564 20.7433 110.564 20.5072 110.564 20.2564V16.7599C110.564 13.8977 109.758 11.6552 108.16 10.0323C106.562 8.42423 104.392 7.61279 101.651 7.61279C99.188 7.61279 97.1796 8.15867 95.6404 9.22091C94.1011 10.2979 93.0749 11.6257 92.5618 13.2043L96.476 14.5911C96.7985 13.6027 97.3849 12.8355 98.2058 12.2896C99.0414 11.7437 100.068 11.4634 101.46 11.4634C102.853 11.4634 103.967 11.847 104.773 12.5994C105.594 13.3666 106.005 14.6059 106.005 16.3468V18.2647C104.568 17.8221 102.941 17.6008 101.108 17.6008C99.2906 17.6008 97.722 17.8959 96.388 18.4713C95.054 19.0466 94.0131 19.8728 93.2948 20.9351C92.5618 21.9973 92.21 23.2661 92.21 24.7267C92.21 26.0987 92.5032 27.338 93.0749 28.4298C93.6466 29.5215 94.5409 30.392 95.743 31.0264C96.9451 31.6755 98.455 31.9853 100.258 31.9853C102.34 31.9853 104.143 31.4837 105.668 30.4657C107.134 29.492 108.277 28.1642 109.142 26.4823C109.582 27.9281 109.816 29.5805 109.846 31.4542H113.936C113.936 28.592 113.481 26.1135 112.558 24.0333C112.059 22.8677 111.385 21.8498 110.549 20.9941ZM104.788 26.3643C103.952 27.6036 102.618 28.2232 100.786 28.2232C99.4226 28.2232 98.3817 27.8839 97.6927 27.22C96.9891 26.5413 96.6519 25.7151 96.6519 24.7267C96.6519 23.7382 97.033 22.8825 97.7807 22.1448C98.543 21.4072 99.7011 21.0531 101.27 21.0531C103.234 21.0531 104.817 21.4219 106.019 22.1448C105.932 23.871 105.521 25.2725 104.788 26.3643Z" fill="#000000"></path></svg>